<svg xmlns="http://www.w3.org/2000/svg" xmlns:xlink="http://www.w3.org/1999/xlink" viewBox="0 0 67 48" fill="#fff" fill-rule="evenodd" stroke="#000" stroke-linecap="round" stroke-linejoin="round"><use xlink:href="#A" x="1" y="1"/><symbol id="A" overflow="visible"><g stroke="none" fill-rule="nonzero"><path d="M11.048 29.854l2.43 2.732c-2.592.784-4.3 2.23-5.364 3.516-1.688 2.028-2.572 4.7-2.37 7H1.286c.904-1.948 4.48-7.574 9.764-13.24zm51.728 14.444h-5.424c-12.456-6.508-23.404-11.1-35.014-12.094.02-1.608.32-3.456.864-5.484l-1.064-.28c-.56 2.1-.864 4-.904 5.686a55.05 55.05 0 0 0-3.656-.12c-.957-.001-1.912.087-2.852.262-1.03-1.024-2-2.104-2.912-3.234 5.344-5.564 14.2-10.606 21.856-12.516 2.17 7.192 6.8 12.114 12.434 15.428.416-.236.825-.484 1.226-.744l9.824 10.586.4-.04c2.692-.24 4.2 1.226 4.6 1.688.32.32.48.6.6.864z" fill="#d1a41b"/><path d="M57.996 8.902c.2 9.764-4.8 17.54-11.752 21.536C34.412 24.532 32.184 9.586 34.2 1.57c.56 3.074 1.588 5 3.796 5.926 4.8-1.366 11.43-1.486 16.292-.14C56.306 5.87 57.1 3.62 57.532 1.65c.52 2.3.44 7.252.46 7.252z" fill="#ffdc76"/><g fill="#010202"><path d="M28.204 18.144l1.808 5.364-5.484-3.696zm-5.284 2.35l1.928 3.334-4.08-2.07zm-4.4 2.612l.924 3.334-2.812-1.928zm29.912 8.96l-1.748 2.672 3.074-1.406zm2.732 3.074l-2.792 2.15 3.88-1.004zM44.336 6.1l2.07 4.54 1.346-4.6zm-10.506 6.6l3.274 1.748-2.954.2zm.804 3.556l2.008.804-1.688.46zm23.424-2.27l-2.692 1.124 2.2.34zm-1.084 3.274l-2.07.6 1.668.6zm-24.23 5h6.468v.804h-6.468zm0-1.908h6.468v.804h-6.468zm19.728 1.908h6.468v.804h-6.468zm0-1.908h6.468v.804h-6.468zm-2.3-4.74H39.656v-.724h3.274c.4-1.728.48-3.374 0-4.2a.95.95 0 0 0-.904-.52c-1.868 0-2.652 1.988-2.672 2.07l-.66-.26c.04-.1.984-2.532 3.354-2.532a1.68 1.68 0 0 1 1.526.884c.6 1.024.52 2.772.12 4.6h5.746c.764-2.25 2.35-3.294 5-3.294v.724c-2.892 0-3.696 1.226-4.28 2.592h3.134v.724z"/><path d="M50.664 19.208c-.844-1.266-1.124-2.33-.764-3.556h-.724c-.26.804-.16 2.028.48 3.094h-7.312c.488-.99.88-2.027 1.166-3.094h-.744c-.34 1.186-.804 2.35-1.326 3.274l-.16.3 4.1 2.572-2.3 1.526.4.6 2.572-1.708 2.792 1.808.4-.6-2.572-1.588 4.018-2.632zm-4.64 2.17L43 19.47h5.926zM59.2 8.038c0-1.246-.4-6.528-1.104-7.976-1.928.744-5.464 3.114-6.268 5.564-3.955-.554-7.97-.506-11.912.14-.6-2.632-3.796-4.64-6.188-5.766-1.004 1.708-1.446 5.644-1.346 8.44h-.02c.44 11.732 6.208 19.044 13.74 23.484 7.754-4.4 13.3-13.06 13.1-23.886zm-6.448-2.27c.02 0 .06.02.08.02-.04 0-.06-.02-.08-.02zm-.48-.08c.06.02.14.02.2.04-.08-.02-.14-.04-.2-.04zM58 8.882c.2 9.764-4.8 17.54-11.752 21.536C34.416 24.512 32.168 9.566 34.194 1.55c.56 3.074 1.588 5 3.796 5.926C42.8 6.1 49.42 6 54.282 7.336 56.3 5.85 57.094 3.6 57.536 1.63c.52 2.3.44 7.252.46 7.252z"/><path d="M63.04 42.694c-1.226-1.366-3.596-2.008-5.584-1.948-1.406-1.688-9.6-10.306-9.6-10.306l-.56.724 9.904 10.63.4-.04c2.692-.2 4.2 1.226 4.6 1.688a2.68 2.68 0 0 1 .562.864H57.34c-12.456-6.508-23.404-11.1-35.014-12.094.02-1.628.32-3.456.864-5.484l-1.064-.28c-.56 2.1-.864 4-.904 5.686a55.05 55.05 0 0 0-3.656-.12c-.957-.001-1.91.087-2.852.262A40.26 40.26 0 0 1 11.8 29.04c5.404-5.624 14.304-10.708 22.04-12.576l-.24-1.084c-8.316 2.008-17.416 7.474-22.5 12.736-2.35-3.174-3.294-5.786-3.556-7.754-.34-2.492.24-4.8 1.728-6.63 2.3-2.872 5.604-3.074 9-2.512-.06.54 0 1.044.2 1.366.884 1.326 5.706 1.788 8.56.5-2.1-2.974-6.408-4.4-7.594-3.836-.4.2-.684.54-.884.964-1.166-.2-2.33-.36-3.174-.36-2.974.02-5.264 1.064-6.97 3.174-1.668 2.1-2.35 4.66-1.948 7.474.4 2.652 1.688 5.484 3.9 8.4l-1.064 1.166C3.92 36.082 0 42.534 0 43.614v.56h7.092l-.12-.66c-.4-2.1.4-4.76 2.028-6.73 1.024-1.246 2.732-2.652 5.404-3.314 2.37 2.33 5.404 4.8 8.8 7.172h5.264v-.56c0-.6-.3-1.166-.864-1.546-.824-.54-2.1-.6-3.294-.2-1.124-1.246-1.748-2.932-1.888-5 11.43 1.004 22.4 5.624 34.714 12.074h6.8l.08-.44c.1-.6-.24-1.486-.944-2.27zm-54.92-6.63c-1.668 2.028-2.572 4.7-2.37 7H1.286c.904-1.948 4.48-7.554 9.764-13.24.724.904 1.546 1.808 2.43 2.732a11.04 11.04 0 0 0-5.364 3.516z"/></g></g></symbol></svg>